<svg xmlns="http://www.w3.org/2000/svg" width="94.533" height="81.632" viewBox="0 0 94.533 81.632"><defs><style>.a{fill:#fed23a;}.b{fill:#fff9e9;}.c{fill:#fff4d6;}.d{fill:#ffabe7;}.e{fill:#ff6ed4;}.f{fill:#ff5ccf;}.g{fill:#1d2733;}</style></defs><g transform="translate(0 -34.936)"><g transform="translate(1.385 36.321)"><g transform="translate(0 0)"><path class="a" d="M7.5,111.811V44.282a1.846,1.846,0,0,1,1.846-1.846H97.417a1.846,1.846,0,0,1,1.846,1.846v67.528a1.846,1.846,0,0,1-1.846,1.846H9.346A1.846,1.846,0,0,1,7.5,111.811Z" transform="translate(-7.5 -42.436)"/><path class="b" d="M38.179,132.96h80.435V73.041H38.179Z" transform="translate(-32.515 -67.39)"/><path class="c" d="M433.821,73.041h7.385V132.96h-7.385Z" transform="translate(-355.107 -67.39)"/></g><path class="d" d="M355.827,364.443l-3.97-1.846-3.97,1.846V340.625h7.939Z" transform="translate(-285.04 -285.569)"/><g transform="translate(55.394 36.772)"><path class="e" d="M318.941,264.485c-1.4,0-2.318-2.384-3.536-2.89-1.263-.525-3.59.492-4.541-.462s.063-3.285-.461-4.55c-.505-1.22-2.885-2.139-2.885-3.543s2.38-2.322,2.885-3.543c.524-1.265-.491-3.6.461-4.55s3.279.063,4.541-.461c1.218-.506,2.135-2.89,3.536-2.89s2.318,2.384,3.536,2.89c1.263.525,3.59-.492,4.541.462s-.063,3.285.461,4.55c.505,1.22,2.885,2.139,2.885,3.543s-2.38,2.322-2.885,3.543c-.524,1.265.491,3.6-.461,4.55s-3.279-.063-4.541.461C321.259,262.1,320.342,264.485,318.941,264.485Z" transform="translate(-307.518 -241.597)"/></g><path class="f" d="M361.618,249.5c-.524-1.265.491-3.6-.461-4.55s-3.279.063-4.541-.462c-1.218-.506-2.135-2.89-3.536-2.89s-2.318,2.384-3.536,2.89c-.05.021-.1.039-.157.055,1.29.391,3.471-.509,4.385.407.952.953-.063,3.285.461,4.55.505,1.22,2.885,2.139,2.885,3.543s-2.38,2.322-2.885,3.543c-.524,1.265.491,3.6-.461,4.55-.914.915-3.095.016-4.385.407.054.016.106.034.157.055,1.218.506,2.135,2.89,3.536,2.89s2.318-2.384,3.536-2.89c1.263-.525,3.59.492,4.541-.462s-.063-3.285.461-4.55c.505-1.22,2.885-2.139,2.885-3.543S362.123,250.719,361.618,249.5Z" transform="translate(-286.263 -204.825)"/><circle class="d" cx="4.024" cy="4.024" r="4.024" transform="translate(62.793 44.192)"/></g><g transform="translate(0 34.936)"><path class="g" d="M91.3,34.936H3.231A3.235,3.235,0,0,0,0,38.167V49.54a1.385,1.385,0,0,0,2.77,0V38.167a.462.462,0,0,1,.462-.462H91.3a.462.462,0,0,1,.462.462V105.7a.462.462,0,0,1-.462.462H73.556v-2.881H87.484a1.385,1.385,0,0,0,1.385-1.385V87.39a1.385,1.385,0,0,0-2.77,0v13.116H73.556V94.362l.133.012c1.15.1,2.579.227,3.57-.766s.864-2.423.764-3.573a2.1,2.1,0,0,1,.957-2.361c2.443-2.031,2.488-4.206,0-6.274a2.1,2.1,0,0,1-.957-2.361c.271-3.1-1.176-4.616-4.334-4.338a2.089,2.089,0,0,1-2.353-.958c-2.028-2.448-4.2-2.493-6.269,0a2.089,2.089,0,0,1-2.352.958c-3.1-.272-4.61,1.183-4.334,4.338a2.1,2.1,0,0,1-.957,2.361c-2.443,2.031-2.488,4.206,0,6.274a2.1,2.1,0,0,1,.957,2.361c-.291,3.318,1.294,4.6,4.466,4.327v6.144H8.434V43.356H86.1V80a1.385,1.385,0,0,0,2.77,0V41.971a1.385,1.385,0,0,0-1.385-1.385H7.049a1.385,1.385,0,0,0-1.385,1.385v59.919a1.385,1.385,0,0,0,1.385,1.385h55.8v2.881H3.231a.462.462,0,0,1-.462-.462V56.556a1.385,1.385,0,0,0-2.77,0V105.7a3.235,3.235,0,0,0,3.231,3.231H62.848v6.268a1.385,1.385,0,0,0,1.969,1.256l3.386-1.575,3.386,1.575a1.412,1.412,0,0,0,1.969-1.256v-6.268H91.3a3.235,3.235,0,0,0,3.231-3.231V38.167A3.235,3.235,0,0,0,91.3,34.936ZM62.472,91.614c-1.386.122-1.453.048-1.332-1.338a4.777,4.777,0,0,0-1.945-4.732c-1.124-.934-1.124-1.08,0-2.015A4.777,4.777,0,0,0,61.14,78.8c-.121-1.386-.054-1.459,1.332-1.338A4.764,4.764,0,0,0,67.2,75.51c.931-1.123,1.073-1.123,2,0a4.766,4.766,0,0,0,4.728,1.95c1.386-.122,1.453-.048,1.332,1.338a4.777,4.777,0,0,0,1.945,4.732c1.123.934,1.124,1.08,0,2.015a4.777,4.777,0,0,0-1.945,4.732c.122,1.386.054,1.46-1.332,1.338a5.786,5.786,0,0,0-2.725.2,5.524,5.524,0,0,0-2,1.752,5.121,5.121,0,0,1-1,1.024,5.126,5.126,0,0,1-1-1.024,5.524,5.524,0,0,0-2-1.752,6.064,6.064,0,0,0-2.724-.2Zm6.314,20.479a1.384,1.384,0,0,0-1.168,0l-2,.931V95.973a3.095,3.095,0,0,0,5.17,0v17.051Z" transform="translate(0 -34.936)"/><path class="g" d="M91.332,131.091h47.737a1.385,1.385,0,0,0,0-2.77H91.332A1.385,1.385,0,0,0,91.332,131.091Z" transform="translate(-73.374 -111.079)"/><path class="g" d="M151.335,175.324a1.385,1.385,0,0,0-1.385-1.385H91.333a1.385,1.385,0,0,0,0,2.77H149.95A1.385,1.385,0,0,0,151.335,175.324Z" transform="translate(-73.375 -148.274)"/><path class="g" d="M126.021,220.941a1.385,1.385,0,0,0-1.385-1.385h-33.3a1.385,1.385,0,0,0,0,2.77h33.3A1.385,1.385,0,0,0,126.021,220.941Z" transform="translate(-73.375 -185.469)"/><path class="g" d="M110.193,278.6l-2.265,0c-1.453,0-2.252-.386-2.549-1.926-.271-1.406-2.3-1.227-2.671,0-.165.543-1,2.1-1.721,1.972-.385-.067-.553-.661-.695-.968a11.809,11.809,0,0,1-.651-1.867c-.729-2.684-.874-5.485-1.33-8.219-.264-1.585-2.681-1.137-2.72.368a42.374,42.374,0,0,1-2.615,14.019c-.633,1.668,2.043,2.389,2.671.736a39.157,39.157,0,0,0,1.586-5.308,14.039,14.039,0,0,0,.794,1.926,3.3,3.3,0,0,0,4.223,1.833,4.727,4.727,0,0,0,1.693-1.237c1.31,1.511,3.259,1.442,5.078,1.44q4.112-.005,8.224-.017a1.386,1.386,0,0,0,0-2.77q-3.526.01-7.051.016Z" transform="translate(-75.731 -223.826)"/><path class="g" d="M345.5,285.1a5.409,5.409,0,1,0-5.409-5.409A5.415,5.415,0,0,0,345.5,285.1Zm0-8.048a2.639,2.639,0,1,1-2.639,2.639A2.642,2.642,0,0,1,345.5,277.055Z" transform="translate(-277.301 -230.094)"/></g></g></svg>