<svg xmlns="http://www.w3.org/2000/svg" width="81.631" height="81.63" viewBox="0 0 81.631 81.63"><defs><style>.a{fill:#d8ff33;}.b{fill:#55d8d8;}.c{fill:#6bf2ee;}.d{fill:#f5ff92;}.e{fill:#1d2733;}</style></defs><g transform="translate(-4.992 -4.999)"><path class="a" d="M371.673,97.532a39.853,39.853,0,0,1-1.5,10.857l-1.143.115c-.093.008-.187.016-.278.02l-.966.044a6.7,6.7,0,0,0-5.86,4.02l-.247.563a5.283,5.283,0,0,1-4.836,3.159h-4.109a1.9,1.9,0,0,1-1.9-1.719l-.164-1.642a6.658,6.658,0,0,0-3.034-4.963,2.347,2.347,0,0,1-1.078-1.979v-1.646a3.224,3.224,0,0,1,1.09-2.415l7.018-6.2a6.918,6.918,0,0,0,2.034-7.173,7.048,7.048,0,0,0-5.88-4.948l-.709-.088a3.461,3.461,0,0,1-2.184-1.156,1.958,1.958,0,0,1-.239-2.247l1.47-2.514a50.682,50.682,0,0,1,6.391-8.651l1.585-2.211a39.752,39.752,0,0,1,14.537,30.772Z" transform="translate(-286.026 -51.718)"/><path class="b" d="M88.038,61.81l1.143-.115A39.845,39.845,0,0,1,11,50.837q0-1.881.171-3.717l.481.046.543-.107a6.3,6.3,0,0,1,6.662,3.025A6.392,6.392,0,0,0,20,51.52l2.833,2.667a4.252,4.252,0,0,0,1.792,1l.33.091a5.76,5.76,0,0,1,4.021,4L30.5,64.763a5.386,5.386,0,0,0,.9,1.818L36,72.612a5.825,5.825,0,0,1,1.112,2.569l1.25,7.5a1.1,1.1,0,0,0,.387.688,1.064,1.064,0,0,0,1.08.151,2.115,2.115,0,0,0,1.291-1.761A7.612,7.612,0,0,1,42.88,77.6L44.213,76a2.778,2.778,0,0,0,.52-.964L46.1,70.591a6.624,6.624,0,0,1,2.3-3.3l4.075-3.129a1.455,1.455,0,0,0,.563-.909,1.381,1.381,0,0,0-.314-1.125l-2.712-3.192c-.163-.19-.317-.389-.462-.592l-2.075-2.89a6,6,0,0,0-4.95-2.608,1.049,1.049,0,0,1-.563-.148l-4.238-2.543a4.124,4.124,0,0,0-4.051-.1l-2.233,1.2a4.389,4.389,0,0,1-5.781-1.52L23.492,46.3a4.72,4.72,0,0,1,.08-5.169,5.313,5.313,0,0,1,5.091-2.3l3.254.413a2.925,2.925,0,0,0,2.907-1.394,5.14,5.14,0,0,1,5.1-2.516l1.423.182a2.894,2.894,0,0,0,2.649-1.1l1.254-1.626a4.234,4.234,0,0,0,.127-5.015l-2.7-3.9a12.5,12.5,0,0,0-3.958-3.667,12.44,12.44,0,0,1-1.194-.792l-2.278-1.711-2.885-2.172a39.863,39.863,0,0,1,43.787,4.527l-1.585,2.211a50.68,50.68,0,0,0-6.391,8.651L66.7,33.441a1.958,1.958,0,0,0,.239,2.247,3.461,3.461,0,0,0,2.184,1.156l.709.088a7.048,7.048,0,0,1,5.88,4.948,6.918,6.918,0,0,1-2.034,7.173l-7.018,6.2a3.224,3.224,0,0,0-1.089,2.415v1.646a2.347,2.347,0,0,0,1.078,1.979,6.658,6.658,0,0,1,3.034,4.963l.164,1.642a1.9,1.9,0,0,0,1.9,1.719H75.85a5.282,5.282,0,0,0,4.835-3.158l.248-.564a6.7,6.7,0,0,1,5.86-4.02l.966-.044C87.851,61.826,87.945,61.818,88.038,61.81Z" transform="translate(-5.031 -5.023)"/><path class="a" d="M53.6,85.506a1.381,1.381,0,0,1,.314,1.125,1.455,1.455,0,0,1-.563.909l-4.075,3.129a6.624,6.624,0,0,0-2.3,3.3l-1.371,4.442a2.778,2.778,0,0,1-.52.964l-1.333,1.6A7.612,7.612,0,0,0,42,105.144a2.115,2.115,0,0,1-1.291,1.761,1.064,1.064,0,0,1-1.08-.151,1.1,1.1,0,0,1-.387-.688l-1.25-7.5a5.825,5.825,0,0,0-1.112-2.569l-4.6-6.031a5.386,5.386,0,0,1-.9-1.818l-1.517-5.478a5.76,5.76,0,0,0-4.021-4l-.33-.091a4.252,4.252,0,0,1-1.792-1L20.881,74.9a6.392,6.392,0,0,1-1.145-1.437,6.3,6.3,0,0,0-6.662-3.025l-.543.107L12.05,70.5A39.854,39.854,0,0,1,33.233,38.92l2.885,2.172L38.4,42.8a12.44,12.44,0,0,0,1.194.792,12.5,12.5,0,0,1,3.958,3.667l2.7,3.9a4.234,4.234,0,0,1-.127,5.015L44.871,57.8a2.894,2.894,0,0,1-2.649,1.1L40.8,58.719a5.14,5.14,0,0,0-5.1,2.516A2.925,2.925,0,0,1,32.8,62.628l-3.254-.413a5.313,5.313,0,0,0-5.091,2.3,4.72,4.72,0,0,0-.08,5.169L26.54,73.11a4.389,4.389,0,0,0,5.781,1.52l2.233-1.2a4.124,4.124,0,0,1,4.051.1l4.238,2.543a1.049,1.049,0,0,0,.563.148,6,6,0,0,1,4.95,2.608l2.075,2.89c.145.2.3.4.462.592Z" transform="translate(-5.91 -28.405)"/><path class="c" d="M160.805,11a39.66,39.66,0,0,0-18.485,4.54l2.885,2.172,2.278,1.711a12.449,12.449,0,0,0,1.163.773l.179-.1a39.9,39.9,0,0,1,37.183.114l.1-.14A39.657,39.657,0,0,0,160.805,11Z" transform="translate(-114.997 -5.025)"/><path class="c" d="M17.5,240.484q0-1.881.171-3.717l.375-2.684a6.286,6.286,0,0,0-5.855-1.93l-.543.107-.481-.046Q11,234.05,11,235.931A39.825,39.825,0,0,0,31.378,270.7,39.748,39.748,0,0,1,17.5,240.484Z" transform="translate(-5.031 -190.117)"/><path class="d" d="M18.9,72.34A39.878,39.878,0,0,1,39.552,43.572,12.492,12.492,0,0,1,38.4,42.8l-2.278-1.711L33.233,38.92A39.854,39.854,0,0,0,12.05,70.5l.481.046.543-.107a6.286,6.286,0,0,1,5.826,1.9Z" transform="translate(-5.91 -28.405)"/><path class="e" d="M45.808,5A40.815,40.815,0,1,0,74.669,16.954,40.815,40.815,0,0,0,45.808,5ZM18.327,18.333a39.02,39.02,0,0,1,8.9-6.67L31.9,15.177a13.538,13.538,0,0,0,1.286.855,11.6,11.6,0,0,1,3.65,3.38l2.7,3.9a3.262,3.262,0,0,1-.1,3.864L38.188,28.8a1.916,1.916,0,0,1-1.753.728l-1.423-.182a6.108,6.108,0,0,0-6.063,2.993,1.94,1.94,0,0,1-1.94.916l-3.253-.413a6.28,6.28,0,0,0-6.022,2.722,5.691,5.691,0,0,0-.1,6.238l2.169,3.425a5.384,5.384,0,0,0,7.065,1.858l2.233-1.2a3.145,3.145,0,0,1,3.088.075l4.238,2.543a2.011,2.011,0,0,0,1.089.287A5,5,0,0,1,41.652,51l2.073,2.89c.161.224.333.445.512.655l2.713,3.191a.41.41,0,0,1,.094.34.483.483,0,0,1-.194.29L42.774,61.49a7.559,7.559,0,0,0-2.634,3.789l-1.369,4.443a1.808,1.808,0,0,1-.34.627l-1.333,1.6a8.553,8.553,0,0,0-1.982,4.7,1.14,1.14,0,0,1-.7.95.087.087,0,0,1-.1-.016.175.175,0,0,1-.033-.083L33.044,70a6.813,6.813,0,0,0-1.3-3l-4.6-6.033a4.357,4.357,0,0,1-.739-1.487L24.888,54a6.744,6.744,0,0,0-4.7-4.683l-.331-.09a3.28,3.28,0,0,1-1.381-.773L15.64,45.787a5.44,5.44,0,0,1-.97-1.22,7.292,7.292,0,0,0-7.435-3.536,38.571,38.571,0,0,1,11.093-22.7ZM73.289,73.3A38.864,38.864,0,0,1,6.945,45.814q0-1.389.1-2.761l.31-.061a5.337,5.337,0,0,1,5.632,2.56A7.393,7.393,0,0,0,14.3,47.208l2.832,2.666a5.24,5.24,0,0,0,2.2,1.235l.331.09a4.783,4.783,0,0,1,3.337,3.322L24.525,60a6.3,6.3,0,0,0,1.067,2.149l4.6,6.033a4.855,4.855,0,0,1,.925,2.138l1.25,7.5A2.042,2.042,0,0,0,35.176,79.4a3.087,3.087,0,0,0,1.884-2.572A6.611,6.611,0,0,1,38.6,73.2l1.333-1.6a3.754,3.754,0,0,0,.7-1.3l1.37-4.443a5.618,5.618,0,0,1,1.958-2.816l4.075-3.129a2.414,2.414,0,0,0,.933-1.53,2.37,2.37,0,0,0-.534-1.911l-2.713-3.191c-.144-.169-.283-.347-.413-.528l-2.074-2.89a6.95,6.95,0,0,0-5.769-3.015.066.066,0,0,1-.035-.009L33.2,44.292a5.106,5.106,0,0,0-5.013-.122l-2.233,1.2a3.426,3.426,0,0,1-4.495-1.182l-2.169-3.425a3.74,3.74,0,0,1,.063-4.1,4.338,4.338,0,0,1,4.16-1.881l3.254.413a3.889,3.889,0,0,0,3.873-1.87,4.161,4.161,0,0,1,4.13-2.039l1.423.182a3.877,3.877,0,0,0,3.545-1.473l1.254-1.626a5.206,5.206,0,0,0,.156-6.167l-2.7-3.9a13.568,13.568,0,0,0-4.268-3.951,11.569,11.569,0,0,1-1.1-.732L29.16,10.675A38.958,38.958,0,0,1,69.782,15.22l-1.015,1.417a51.46,51.46,0,0,0-6.474,8.775l-1.475,2.522a2.925,2.925,0,0,0,.351,3.373,4.436,4.436,0,0,0,2.8,1.483l.708.087a6.074,6.074,0,0,1,5.067,4.263A5.939,5.939,0,0,1,68,43.3l-6.983,6.2a4.166,4.166,0,0,0-1.382,3.145v1.645a3.285,3.285,0,0,0,1.489,2.8,5.674,5.674,0,0,1,2.574,4.24l.155,1.6A2.833,2.833,0,0,0,66.71,65.49h4.108a6.223,6.223,0,0,0,5.73-3.7l.247-.543a5.714,5.714,0,0,1,5.011-3.428l.967-.039.03,0A38.689,38.689,0,0,1,73.289,73.3Zm10.1-17.528-.48.049c-.076.008-.152.013-.226.016l-.965.044a7.663,7.663,0,0,0-6.71,4.6L74.762,61a4.272,4.272,0,0,1-3.944,2.536H66.71a.9.9,0,0,1-.928-.8l-.164-1.623a7.578,7.578,0,0,0-3.44-5.676,1.325,1.325,0,0,1-.6-1.149V52.644a2.214,2.214,0,0,1,.723-1.683l7-6.2a7.891,7.891,0,0,0,2.315-8.187,8.032,8.032,0,0,0-6.7-5.634l-.711-.087a2.49,2.49,0,0,1-1.571-.832.982.982,0,0,1-.13-1.112l1.47-2.513a49.508,49.508,0,0,1,6.267-8.484.965.965,0,0,0,.075-.092l.97-1.353q1.026.894,2,1.865A38.61,38.61,0,0,1,84.672,45.814a39.08,39.08,0,0,1-1.282,9.953Z"/></g></svg>