<svg xmlns="http://www.w3.org/2000/svg" width="46" height="46" viewBox="0 0 46 46"><defs><style>.a{fill:#fff;}.b,.d{fill:none;}.b{stroke:#fff;stroke-width:2px;}.c{stroke:none;}</style></defs><g transform="translate(-211 -8426)"><g transform="translate(98.381 8438)"><path class="a" d="M132.441,7.208v-1.9a4.176,4.176,0,0,1,.04-.661,1.283,1.283,0,0,1,.18-.461.736.736,0,0,1,.454-.314,3.231,3.231,0,0,1,.835-.087h1.9V0h-3.03a4.932,4.932,0,0,0-3.778,1.248,5.257,5.257,0,0,0-1.148,3.678V7.208h-2.27V11h2.269V22h4.552V11h3.03l.4-3.791Z" transform="translate(5 0)"/></g><g class="b" transform="translate(211 8426)"><circle class="c" cx="23" cy="23" r="23"/><circle class="d" cx="23" cy="23" r="22"/></g></g></svg>