<svg xmlns="http://www.w3.org/2000/svg" width="30" height="29" viewBox="0 0 30 29"><defs><style>.a{fill:#7ccc1f;}.b{fill:#fff;}</style></defs><g transform="translate(0.216 -0.324)"><rect class="a" width="30" height="29" rx="5" transform="translate(-0.216 0.324)"/><g transform="translate(-164.216 -239.146)"><path class="b" d="M590.472,424.823a.3.3,0,0,1-.274.112c-.84-.039-1.679-.074-2.519-.113a.228.228,0,0,1-.237-.261,6.144,6.144,0,0,0-.262-2.021c-.045-.146.029-.239.212-.3l1.784-.559c.182-.057.363-.115.545-.172.239-.074.331-.027.4.209a8.472,8.472,0,0,1,.322,1.594.315.315,0,0,0,.029.078Z" transform="translate(-402.632 -167.948)"/><path class="b" d="M170,432.791c.034-.292.065-.585.1-.877a6.635,6.635,0,0,1,.2-.984c.058-.2.146-.253.343-.2q1.188.318,2.375.639c.23.062.278.147.218.381a6.048,6.048,0,0,0-.177,1.67c.007.234-.072.3-.309.314-.8.034-1.6.068-2.4.11-.18.01-.3-.037-.357-.217Z" transform="translate(0 -176.856)"/><path class="b" d="M314.1,433.1a.642.642,0,0,0-.126-.463q-.876-1.63-1.744-3.263c-.052-.1-.106-.195-.037-.309s.214-.147.38-.049q1.011.594,2.021,1.192c.439.259.879.517,1.316.779a.5.5,0,0,0,.262.072,2.036,2.036,0,0,1,2.011,2.075,2.043,2.043,0,0,1-4.048.357A2.319,2.319,0,0,1,314.1,433.1Z" transform="translate(-137.205 -175.162)"/><path class="b" d="M306.624,251.307c.01.189-.055.278-.21.3a5.87,5.87,0,0,0-1.9.615.225.225,0,0,1-.338-.1q-.611-1.14-1.21-2.286c-.074-.141-.024-.238.151-.33a8.417,8.417,0,0,1,2.04-.761c.276-.063.555-.111.834-.161a.227.227,0,0,1,.292.214c.106.756.208,1.513.312,2.27C306.6,251.161,306.617,251.253,306.624,251.307Z" transform="translate(-128.296 -1.071)"/><path class="b" d="M204.734,310.486a.225.225,0,0,1-.1.191,5.887,5.887,0,0,0-1.234,1.54c-.093.168-.2.194-.377.1q-1.1-.6-2.2-1.2a.232.232,0,0,1-.108-.362,8.756,8.756,0,0,1,1.893-2.365.23.23,0,0,1,.387.025q.829.94,1.656,1.882A.246.246,0,0,1,204.734,310.486Z" transform="translate(-29.606 -58.707)"/><path class="b" d="M534.516,304.6a.259.259,0,0,1-.132.228c-.727.432-1.451.868-2.178,1.3-.159.094-.261.066-.362-.1a6.009,6.009,0,0,0-1.295-1.491.232.232,0,0,1-.045-.364q.8-.989,1.6-1.971a.22.22,0,0,1,.361-.037,8.745,8.745,0,0,1,2,2.3A.719.719,0,0,1,534.516,304.6Z" transform="translate(-347.877 -52.721)"/><path class="b" d="M437.854,247.471a8.852,8.852,0,0,1,2.939.825.229.229,0,0,1,.123.356q-.542,1.135-1.091,2.266a.23.23,0,0,1-.354.128,5.82,5.82,0,0,0-1.825-.521c-.3-.033-.336-.106-.3-.415.069-.656.126-1.314.188-1.971.013-.144.021-.289.04-.432A.245.245,0,0,1,437.854,247.471Z" transform="translate(-258.019 0)"/></g></g></svg>