<svg xmlns="http://www.w3.org/2000/svg" xmlns:xlink="http://www.w3.org/1999/xlink" width="201.19" height="105.893" viewBox="0 0 201.19 105.893"><defs><style>.a,.f,.g{fill:#fff;}.b{fill:url(#c);}.c{fill:url(#d);}.d{fill:url(#e);}.e{fill:url(#f);}.f{fill-rule:evenodd;}.g{font-size:29px;font-family:Atwic-Bold, Atwic;font-weight:700;}.h{filter:url(#a);}</style><filter id="a" x="0" y="0" width="105.139" height="105.893" filterUnits="userSpaceOnUse"><feOffset dx="5" dy="10" input="SourceAlpha"/><feGaussianBlur stdDeviation="7.5" result="b"/><feFlood flood-opacity="0.149"/><feComposite operator="in" in2="b"/><feComposite in="SourceGraphic"/></filter><linearGradient id="c" x1="0.5" y1="3.317" x2="0.5" y2="-0.03" gradientUnits="objectBoundingBox"><stop offset="0" stop-color="#d76e2d"/><stop offset="1" stop-color="#e08451"/></linearGradient><linearGradient id="d" x1="0.5" y1="1.03" x2="0.5" y2="-0.572" xlink:href="#c"/><linearGradient id="e" x1="0.5" y1="3.139" x2="0.5" y2="0.021" gradientUnits="objectBoundingBox"><stop offset="0" stop-color="#39741f"/><stop offset="1" stop-color="#61bd4f"/></linearGradient><linearGradient id="f" x1="0.5" y1="1.133" x2="0.5" y2="-0.753" xlink:href="#e"/></defs><g transform="translate(-134.13 -120.372)"><g transform="translate(151.63 132.872)"><g class="h" transform="matrix(1, 0, 0, 1, -17.5, -12.5)"><rect class="a" width="60.139" height="60.893" rx="20" transform="translate(17.5 12.5)"/></g><g transform="translate(12.283 13.11)"><g transform="translate(0 2.461)"><path class="b" d="M239.726,183.349v-9.142a17.487,17.487,0,0,0-7.649,9.142Z" transform="translate(-231.077 -174.207)"/><path class="c" d="M237.665,206.793h-8.113a16.953,16.953,0,0,0-.535,4.229,17.242,17.242,0,0,0,8.649,14.874Z" transform="translate(-229.016 -196.148)"/></g><g transform="translate(10.121)"><path class="d" d="M284.546,178.552h-9.583a8.713,8.713,0,0,0-14.9-.278v-9.912H260a18.081,18.081,0,0,1,7.667-1.69A17.747,17.747,0,0,1,284.546,178.552Z" transform="translate(-260 -166.672)"/><path class="e" d="M285.424,212.688H265.74v6.793h9.947s-1.071,5.288-7.7,5.335a9.247,9.247,0,0,1-7.771-4.079l-.013-.052v9.981a18.1,18.1,0,0,0,7.6,1.66,17.566,17.566,0,0,0,17.787-17.336A17.015,17.015,0,0,0,285.424,212.688Z" transform="translate(-260.133 -197.656)"/></g></g></g><g transform="translate(226.237 145.955)"><path class="f" d="M485.625,352.5a2.53,2.53,0,1,1-.015,5.06,2.531,2.531,0,1,1,0-5.06Zm-.031.507a2.016,2.016,0,0,0,.031,4.029,1.929,1.929,0,0,0,1.917-2,1.959,1.959,0,0,0-1.932-2.03Zm-.383,3.322h-.582v-2.522a6.827,6.827,0,0,1,.966-.077,1.335,1.335,0,0,1,.859.2.636.636,0,0,1,.26.538.65.65,0,0,1-.521.6v.031c.245.077.368.277.445.615a2.246,2.246,0,0,0,.184.615h-.613a2,2,0,0,1-.2-.615c-.046-.262-.2-.385-.521-.385h-.276Zm.015-1.414h.276c.322,0,.583-.108.583-.369,0-.231-.169-.384-.537-.384a1.385,1.385,0,0,0-.322.031Z" transform="translate(-379.103 -345.17)"/><text class="g" transform="translate(0 28)"><tspan x="0" y="0">igLearn</tspan></text></g></g></svg>