<svg xmlns="http://www.w3.org/2000/svg" xmlns:xlink="http://www.w3.org/1999/xlink" width="99.02" height="99.697" viewBox="0 0 99.02 99.697"><defs><style>.a{fill:#fff;}.b{fill:url(#c);}.c{fill:url(#d);}.d{fill:url(#e);}.e{fill:url(#f);}.f{filter:url(#a);}</style><filter id="a" x="0" y="0" width="99.02" height="99.697" filterUnits="userSpaceOnUse"><feOffset dx="5" dy="10" input="SourceAlpha"/><feGaussianBlur stdDeviation="7.5" result="b"/><feFlood flood-opacity="0.149"/><feComposite operator="in" in2="b"/><feComposite in="SourceGraphic"/></filter><linearGradient id="c" x1="0.5" y1="3.317" x2="0.5" y2="-0.03" gradientUnits="objectBoundingBox"><stop offset="0" stop-color="#d76e2d"/><stop offset="1" stop-color="#e08451"/></linearGradient><linearGradient id="d" x1="0.5" y1="1.03" x2="0.5" y2="-0.572" xlink:href="#c"/><linearGradient id="e" x1="0.5" y1="3.139" x2="0.5" y2="0.021" gradientUnits="objectBoundingBox"><stop offset="0" stop-color="#39741f"/><stop offset="1" stop-color="#61bd4f"/></linearGradient><linearGradient id="f" x1="0.5" y1="1.133" x2="0.5" y2="-0.753" xlink:href="#e"/></defs><g transform="translate(-134.13 -120.038)"><g transform="translate(151.63 132.538)"><g class="f" transform="matrix(1, 0, 0, 1, -17.5, -12.5)"><rect class="a" width="54.02" height="54.697" rx="15" transform="translate(17.5 12.5)"/></g><g transform="translate(11.033 11.777)"><g transform="translate(0 2.211)"><path class="b" d="M238.947,182.419v-8.212a15.708,15.708,0,0,0-6.87,8.212Z" transform="translate(-231.179 -174.207)"/><path class="c" d="M236.785,206.793H229.5a15.228,15.228,0,0,0-.481,3.8,15.488,15.488,0,0,0,7.769,13.36Z" transform="translate(-229.016 -197.231)"/></g><g transform="translate(9.092)"><path class="d" d="M282.049,177.343h-8.608a7.826,7.826,0,0,0-13.382-.249v-8.9H260a16.241,16.241,0,0,1,6.887-1.518A15.942,15.942,0,0,1,282.049,177.343Z" transform="translate(-260 -166.672)"/><path class="e" d="M282.857,212.688H265.176v6.1h8.935s-.962,4.75-6.921,4.792a8.306,8.306,0,0,1-6.981-3.664l-.012-.047v8.966a16.256,16.256,0,0,0,6.827,1.492A15.778,15.778,0,0,0,283,214.757,15.283,15.283,0,0,0,282.857,212.688Z" transform="translate(-260.14 -199.185)"/></g></g></g></g></svg>