<svg xmlns="http://www.w3.org/2000/svg" width="232" height="184" viewBox="0 0 232 184"><defs><style>.a{fill:#c1c8d1;}.b{fill:#c7e2fb;}.c{fill:#ebf7fe;}.d{fill:#698ec0;}.e{fill:#fcd4a5;}.f{fill:#cda57d;}.g,.h{fill:#1d2733;}.h{font-size:24px;font-family:Poppins-SemiBold, Poppins;font-weight:600;}</style></defs><g transform="translate(74 -1)"><path class="a" d="M16.483,33h23.7A14.483,14.483,0,0,1,54.665,47.483v23.7H2v-23.7A14.483,14.483,0,0,1,16.483,33Z" transform="translate(0.317 10.132)"/><path class="b" d="M38,30H69.6V72.132H38Z" transform="translate(11.715 9.182)"/><path class="c" d="M38,66.378C54.444,63.745,66.965,50.223,66.965,33.95A30.006,30.006,0,0,0,66.7,30H38Z" transform="translate(11.715 9.182)"/><path class="c" d="M24.85,40.9l-7.9,3.95L13,33h5.266Z" transform="translate(3.799 10.132)"/><path class="d" d="M22.887,39,19.2,40.843l2.37,4.74H24.2l2.37-4.74Z" transform="translate(5.762 12.031)"/><path class="c" d="M22,40.9l7.9,3.95L33.85,33H28.583Z" transform="translate(6.649 10.132)"/><path class="d" d="M28.533,67.7,24.583,44H21.95L18,67.7Z" transform="translate(5.382 13.614)"/><path class="e" d="M36.7,17.266v7.9a11.85,11.85,0,1,1-23.7,0v-7.9h7.9a7.9,7.9,0,0,0,6.32-3.16L28.8,12l1.58,2.107A7.9,7.9,0,0,0,36.7,17.266Z" transform="translate(3.799 3.483)"/><path class="e" d="M23.583,31.481a11.771,11.771,0,0,1-6.583-2v4.634l6.583,7.9,6.583-7.9V29.48a11.771,11.771,0,0,1-6.583,2Z" transform="translate(5.066 9.017)"/><path class="e" d="M14.266,23.583V17H12.95a3.95,3.95,0,0,0,0,7.9h1.4a10.875,10.875,0,0,1-.079-1.317Z" transform="translate(2.533 5.066)"/><path class="f" d="M25.8,2A15.8,15.8,0,0,0,10,17.8v4.977a3.95,3.95,0,0,1,2.633-1.027H13.95V20.433h7.9a7.9,7.9,0,0,0,6.32-3.16l1.58-2.107,1.58,2.107a7.9,7.9,0,0,0,6.32,3.16v1.317h1.317A3.95,3.95,0,0,1,41.6,22.776V17.8A15.8,15.8,0,0,0,25.8,2Z" transform="translate(2.85 0.317)"/><path class="e" d="M32.336,17H31.019v6.583A10.875,10.875,0,0,1,30.94,24.9h1.4a3.95,3.95,0,1,0,0-7.9Z" transform="translate(9.479 5.066)"/><g transform="translate(54.981 39.182)"><path class="a" d="M44,30H59.8v5.266H44Z" transform="translate(-41.367 -30)"/><path class="a" d="M42,38h5.266v5.266H42Z" transform="translate(-42 -27.467)"/><path class="a" d="M42,46h5.266v5.266H42Z" transform="translate(-42 -24.934)"/><path class="a" d="M42,54h5.266v5.266H42Z" transform="translate(-42 -22.401)"/></g><path class="g" d="M81.313,37.865h-31.6A1.317,1.317,0,0,0,48.4,39.182v4.753a15.918,15.918,0,0,0-7.9-2.12h-3.95V39.182a13.166,13.166,0,0,0,5.043-7.9h.224a5.266,5.266,0,0,0,3.95-8.716v-4.45a17.116,17.116,0,0,0-34.232,0v4.45a5.266,5.266,0,0,0,3.95,8.716h.263a13.166,13.166,0,0,0,5,7.9v2.633H16.8A15.8,15.8,0,0,0,1,57.614v23.7A1.317,1.317,0,0,0,2.317,82.63H45.765V80H35.034L31.282,57.825l1.593-3.186L35.9,56.153a1.367,1.367,0,0,0,1.9-.75l3.634-10.954A13.166,13.166,0,0,1,48.4,47.081V81.313a1.317,1.317,0,0,0,1.317,1.317h31.6a1.317,1.317,0,0,0,1.317-1.317V39.182A1.317,1.317,0,0,0,81.313,37.865Zm-39.5-9.216V23.382a2.633,2.633,0,0,1,0,5.266ZM12.85,26.016a2.633,2.633,0,0,1,2.633-2.633v5.266A2.633,2.633,0,0,1,12.85,26.016Zm2.633-5.266a5.385,5.385,0,0,0-1.317.184V18.116a14.483,14.483,0,1,1,28.965,0v2.818a5.385,5.385,0,0,0-1.317-.184A1.317,1.317,0,0,0,40.5,19.433,6.583,6.583,0,0,1,35.232,16.8l-1.58-2.107a1.317,1.317,0,0,0-2.107,0L29.965,16.8A6.583,6.583,0,0,1,24.7,19.433H16.8a1.317,1.317,0,0,0-1.317,1.317Zm2.633,7.9V22.066H24.7a9.216,9.216,0,0,0,7.373-3.687l.527-.7.527.7a9.3,9.3,0,0,0,6.056,3.594v6.675a10.533,10.533,0,1,1-21.066,0ZM28.649,41.815a13.061,13.061,0,0,0,5.266-1.106v1.949l-5.266,6.32-5.266-6.32V40.709a13.061,13.061,0,0,0,5.266,1.106Zm-7.136,11.31-2.883-8.676h2.818L26.569,50.6Zm-17.88,4.49A13.166,13.166,0,0,1,15.865,44.448L19.5,55.35a1.3,1.3,0,0,0,1.843.8l3.028-1.514,1.646,3.186L22.263,80H11.533V61.564H8.9V80H3.633ZM24.936,80l3.515-21.066h.395L32.362,80Zm4.213-23.7h-1l-1.422-2.831,1.922-.961,1.922.961Zm6.583-3.173L30.676,50.6l5.174-6.149h2.818ZM58.931,40.5H72.1v2.633H58.931ZM80,80H51.031V40.5H56.3v3.95a1.317,1.317,0,0,0,1.317,1.317h15.8a1.317,1.317,0,0,0,1.317-1.317V40.5H80Z" transform="translate(0 0)"/><path d="M47.583,37H42.317A1.317,1.317,0,0,0,41,38.317v5.266A1.317,1.317,0,0,0,42.317,44.9h5.266A1.317,1.317,0,0,0,48.9,43.583V38.317A1.317,1.317,0,0,0,47.583,37Zm-1.317,5.266H43.633V39.633h2.633Z" transform="translate(12.665 11.398)"/><path d="M47.583,45H42.317A1.317,1.317,0,0,0,41,46.317v5.266A1.317,1.317,0,0,0,42.317,52.9h5.266A1.317,1.317,0,0,0,48.9,51.583V46.317A1.317,1.317,0,0,0,47.583,45Zm-1.317,5.266H43.633V47.633h2.633Z" transform="translate(12.665 13.931)"/><path d="M47.583,53H42.317A1.317,1.317,0,0,0,41,54.317v5.266A1.317,1.317,0,0,0,42.317,60.9h5.266A1.317,1.317,0,0,0,48.9,59.583V54.317A1.317,1.317,0,0,0,47.583,53Zm-1.317,5.266H43.633V55.633h2.633Z" transform="translate(12.665 16.464)"/><path d="M49,37H62.166v2.633H49Z" transform="translate(15.197 11.398)"/><path d="M49,41H62.166v2.633H49Z" transform="translate(15.197 12.665)"/><path d="M49,45H62.166v2.633H49Z" transform="translate(15.197 13.931)"/><path d="M49,49H62.166v2.633H49Z" transform="translate(15.197 15.197)"/><path d="M49,53H62.166v2.633H49Z" transform="translate(15.197 16.464)"/><path d="M49,57H62.166v2.633H49Z" transform="translate(15.197 17.73)"/><text class="h" transform="translate(42 142)"><tspan x="-115.224" y="0">Learn with the best</tspan><tspan x="-54.624" y="35">teachers</tspan></text></g></svg>